<mxfile host="app.diagrams.net" modified="2022-04-21T04:33:06.277Z" agent="5.0 (Windows NT 10.0; Win64; x64) AppleWebKit/537.36 (KHTML, like Gecko) Chrome/100.0.4896.127 Safari/537.36" etag="tImGPrvOGcTJYS8AkAf2" version="17.4.6" type="github">
  <diagram id="C5RBs43oDa-KdzZeNtuy" name="Page-1">
    <mxGraphModel dx="1564" dy="892" grid="1" gridSize="10" guides="1" tooltips="1" connect="1" arrows="1" fold="1" page="1" pageScale="1" pageWidth="827" pageHeight="1169" math="0" shadow="0">
      <root>
        <mxCell id="WIyWlLk6GJQsqaUBKTNV-0" />
        <mxCell id="WIyWlLk6GJQsqaUBKTNV-1" parent="WIyWlLk6GJQsqaUBKTNV-0" />
        <mxCell id="WIyWlLk6GJQsqaUBKTNV-2" value="" style="rounded=0;html=1;jettySize=auto;orthogonalLoop=1;fontSize=11;endArrow=block;endFill=0;endSize=8;strokeWidth=1;shadow=0;labelBackgroundColor=none;edgeStyle=orthogonalEdgeStyle;" parent="WIyWlLk6GJQsqaUBKTNV-1" edge="1">
          <mxGeometry relative="1" as="geometry">
            <mxPoint x="220" y="120" as="sourcePoint" />
            <mxPoint x="220" y="170" as="targetPoint" />
          </mxGeometry>
        </mxCell>
        <mxCell id="gamPYf8eIsHBIR8qhwri-0" value="Select Record" style="rounded=0;whiteSpace=wrap;html=1;" vertex="1" parent="WIyWlLk6GJQsqaUBKTNV-1">
          <mxGeometry x="170" y="170" width="100" height="30" as="geometry" />
        </mxCell>
        <mxCell id="gamPYf8eIsHBIR8qhwri-1" value="" style="rounded=0;html=1;jettySize=auto;orthogonalLoop=1;fontSize=11;endArrow=block;endFill=0;endSize=8;strokeWidth=1;shadow=0;labelBackgroundColor=none;edgeStyle=orthogonalEdgeStyle;exitX=0.5;exitY=1;exitDx=0;exitDy=0;" edge="1" parent="WIyWlLk6GJQsqaUBKTNV-1" source="gamPYf8eIsHBIR8qhwri-0">
          <mxGeometry relative="1" as="geometry">
            <mxPoint x="230" y="130" as="sourcePoint" />
            <mxPoint x="220" y="250" as="targetPoint" />
          </mxGeometry>
        </mxCell>
        <mxCell id="gamPYf8eIsHBIR8qhwri-3" value="Start" style="ellipse;whiteSpace=wrap;html=1;" vertex="1" parent="WIyWlLk6GJQsqaUBKTNV-1">
          <mxGeometry x="160" y="80" width="120" height="40" as="geometry" />
        </mxCell>
        <mxCell id="gamPYf8eIsHBIR8qhwri-4" value="Menu:&lt;br&gt;&lt;div style=&quot;text-align: left&quot;&gt;&lt;span&gt;1. Catat Dana dari Kotak Amal&lt;/span&gt;&lt;/div&gt;&lt;div style=&quot;text-align: left&quot;&gt;&lt;span&gt;2. Catat Dana dari Infaq&lt;/span&gt;&lt;/div&gt;&lt;div style=&quot;text-align: left&quot;&gt;&lt;span&gt;3. Catat Pengeluaran&lt;/span&gt;&lt;/div&gt;&lt;div style=&quot;text-align: left&quot;&gt;&lt;span&gt;4. Lihat Saldo&lt;/span&gt;&lt;/div&gt;&lt;div style=&quot;text-align: left&quot;&gt;&lt;span&gt;5. History&lt;/span&gt;&lt;/div&gt;" style="rounded=0;whiteSpace=wrap;html=1;" vertex="1" parent="WIyWlLk6GJQsqaUBKTNV-1">
          <mxGeometry x="135" y="250" width="170" height="100" as="geometry" />
        </mxCell>
        <mxCell id="gamPYf8eIsHBIR8qhwri-5" value="Pilih = 5" style="rhombus;whiteSpace=wrap;html=1;" vertex="1" parent="WIyWlLk6GJQsqaUBKTNV-1">
          <mxGeometry x="160" y="770" width="120" height="60" as="geometry" />
        </mxCell>
        <mxCell id="gamPYf8eIsHBIR8qhwri-6" value="Pilih = 4" style="rhombus;whiteSpace=wrap;html=1;" vertex="1" parent="WIyWlLk6GJQsqaUBKTNV-1">
          <mxGeometry x="160" y="670" width="120" height="60" as="geometry" />
        </mxCell>
        <mxCell id="gamPYf8eIsHBIR8qhwri-7" value="Pilih = 3" style="rhombus;whiteSpace=wrap;html=1;" vertex="1" parent="WIyWlLk6GJQsqaUBKTNV-1">
          <mxGeometry x="160" y="570" width="120" height="60" as="geometry" />
        </mxCell>
        <mxCell id="gamPYf8eIsHBIR8qhwri-8" value="Pilih = 2" style="rhombus;whiteSpace=wrap;html=1;" vertex="1" parent="WIyWlLk6GJQsqaUBKTNV-1">
          <mxGeometry x="160" y="476" width="120" height="60" as="geometry" />
        </mxCell>
        <mxCell id="gamPYf8eIsHBIR8qhwri-9" value="Pilih = 1" style="rhombus;whiteSpace=wrap;html=1;" vertex="1" parent="WIyWlLk6GJQsqaUBKTNV-1">
          <mxGeometry x="160" y="380" width="120" height="60" as="geometry" />
        </mxCell>
        <mxCell id="gamPYf8eIsHBIR8qhwri-10" value="" style="rounded=0;html=1;jettySize=auto;orthogonalLoop=1;fontSize=11;endArrow=block;endFill=0;endSize=8;strokeWidth=1;shadow=0;labelBackgroundColor=none;edgeStyle=orthogonalEdgeStyle;exitX=0.5;exitY=1;exitDx=0;exitDy=0;entryX=0.5;entryY=0;entryDx=0;entryDy=0;" edge="1" parent="WIyWlLk6GJQsqaUBKTNV-1" source="gamPYf8eIsHBIR8qhwri-4" target="gamPYf8eIsHBIR8qhwri-9">
          <mxGeometry relative="1" as="geometry">
            <mxPoint x="230" y="210" as="sourcePoint" />
            <mxPoint x="230" y="260" as="targetPoint" />
          </mxGeometry>
        </mxCell>
        <mxCell id="gamPYf8eIsHBIR8qhwri-11" value="" style="rounded=0;html=1;jettySize=auto;orthogonalLoop=1;fontSize=11;endArrow=block;endFill=0;endSize=8;strokeWidth=1;shadow=0;labelBackgroundColor=none;edgeStyle=orthogonalEdgeStyle;entryX=0.5;entryY=0;entryDx=0;entryDy=0;" edge="1" parent="WIyWlLk6GJQsqaUBKTNV-1" target="gamPYf8eIsHBIR8qhwri-8">
          <mxGeometry relative="1" as="geometry">
            <mxPoint x="220" y="440" as="sourcePoint" />
            <mxPoint x="220" y="470" as="targetPoint" />
          </mxGeometry>
        </mxCell>
        <mxCell id="gamPYf8eIsHBIR8qhwri-12" value="" style="rounded=0;html=1;jettySize=auto;orthogonalLoop=1;fontSize=11;endArrow=block;endFill=0;endSize=8;strokeWidth=1;shadow=0;labelBackgroundColor=none;edgeStyle=orthogonalEdgeStyle;entryX=0.5;entryY=0;entryDx=0;entryDy=0;exitX=0.5;exitY=1;exitDx=0;exitDy=0;" edge="1" parent="WIyWlLk6GJQsqaUBKTNV-1" source="gamPYf8eIsHBIR8qhwri-8" target="gamPYf8eIsHBIR8qhwri-7">
          <mxGeometry relative="1" as="geometry">
            <mxPoint x="219.83" y="536" as="sourcePoint" />
            <mxPoint x="219.83" y="572" as="targetPoint" />
          </mxGeometry>
        </mxCell>
        <mxCell id="gamPYf8eIsHBIR8qhwri-13" value="" style="rounded=0;html=1;jettySize=auto;orthogonalLoop=1;fontSize=11;endArrow=block;endFill=0;endSize=8;strokeWidth=1;shadow=0;labelBackgroundColor=none;edgeStyle=orthogonalEdgeStyle;entryX=0.5;entryY=0;entryDx=0;entryDy=0;exitX=0.5;exitY=1;exitDx=0;exitDy=0;" edge="1" parent="WIyWlLk6GJQsqaUBKTNV-1" source="gamPYf8eIsHBIR8qhwri-7" target="gamPYf8eIsHBIR8qhwri-6">
          <mxGeometry relative="1" as="geometry">
            <mxPoint x="230" y="546" as="sourcePoint" />
            <mxPoint x="230" y="580" as="targetPoint" />
          </mxGeometry>
        </mxCell>
        <mxCell id="gamPYf8eIsHBIR8qhwri-14" value="" style="rounded=0;html=1;jettySize=auto;orthogonalLoop=1;fontSize=11;endArrow=block;endFill=0;endSize=8;strokeWidth=1;shadow=0;labelBackgroundColor=none;edgeStyle=orthogonalEdgeStyle;entryX=0.5;entryY=0;entryDx=0;entryDy=0;exitX=0.5;exitY=1;exitDx=0;exitDy=0;" edge="1" parent="WIyWlLk6GJQsqaUBKTNV-1" source="gamPYf8eIsHBIR8qhwri-6" target="gamPYf8eIsHBIR8qhwri-5">
          <mxGeometry relative="1" as="geometry">
            <mxPoint x="230" y="640" as="sourcePoint" />
            <mxPoint x="230" y="680" as="targetPoint" />
          </mxGeometry>
        </mxCell>
        <mxCell id="gamPYf8eIsHBIR8qhwri-15" value="Stop" style="ellipse;whiteSpace=wrap;html=1;" vertex="1" parent="WIyWlLk6GJQsqaUBKTNV-1">
          <mxGeometry x="160" y="880" width="120" height="40" as="geometry" />
        </mxCell>
        <mxCell id="gamPYf8eIsHBIR8qhwri-16" value="" style="rounded=0;html=1;jettySize=auto;orthogonalLoop=1;fontSize=11;endArrow=block;endFill=0;endSize=8;strokeWidth=1;shadow=0;labelBackgroundColor=none;edgeStyle=orthogonalEdgeStyle;entryX=0.5;entryY=0;entryDx=0;entryDy=0;exitX=0.5;exitY=1;exitDx=0;exitDy=0;" edge="1" parent="WIyWlLk6GJQsqaUBKTNV-1" source="gamPYf8eIsHBIR8qhwri-5" target="gamPYf8eIsHBIR8qhwri-15">
          <mxGeometry relative="1" as="geometry">
            <mxPoint x="230" y="740" as="sourcePoint" />
            <mxPoint x="230" y="780" as="targetPoint" />
          </mxGeometry>
        </mxCell>
        <mxCell id="gamPYf8eIsHBIR8qhwri-17" value="E" style="ellipse;whiteSpace=wrap;html=1;aspect=fixed;" vertex="1" parent="WIyWlLk6GJQsqaUBKTNV-1">
          <mxGeometry x="400" y="780" width="40" height="40" as="geometry" />
        </mxCell>
        <mxCell id="gamPYf8eIsHBIR8qhwri-18" value="D" style="ellipse;whiteSpace=wrap;html=1;aspect=fixed;" vertex="1" parent="WIyWlLk6GJQsqaUBKTNV-1">
          <mxGeometry x="400" y="680" width="40" height="40" as="geometry" />
        </mxCell>
        <mxCell id="gamPYf8eIsHBIR8qhwri-19" value="C" style="ellipse;whiteSpace=wrap;html=1;aspect=fixed;" vertex="1" parent="WIyWlLk6GJQsqaUBKTNV-1">
          <mxGeometry x="400" y="580" width="40" height="40" as="geometry" />
        </mxCell>
        <mxCell id="gamPYf8eIsHBIR8qhwri-20" value="B" style="ellipse;whiteSpace=wrap;html=1;aspect=fixed;" vertex="1" parent="WIyWlLk6GJQsqaUBKTNV-1">
          <mxGeometry x="400" y="486" width="40" height="40" as="geometry" />
        </mxCell>
        <mxCell id="gamPYf8eIsHBIR8qhwri-21" value="A" style="ellipse;whiteSpace=wrap;html=1;aspect=fixed;" vertex="1" parent="WIyWlLk6GJQsqaUBKTNV-1">
          <mxGeometry x="400" y="390" width="40" height="40" as="geometry" />
        </mxCell>
        <mxCell id="gamPYf8eIsHBIR8qhwri-22" value="" style="rounded=0;html=1;jettySize=auto;orthogonalLoop=1;fontSize=11;endArrow=block;endFill=0;endSize=8;strokeWidth=1;shadow=0;labelBackgroundColor=none;edgeStyle=orthogonalEdgeStyle;exitX=1;exitY=0.5;exitDx=0;exitDy=0;entryX=0;entryY=0.5;entryDx=0;entryDy=0;" edge="1" parent="WIyWlLk6GJQsqaUBKTNV-1" source="gamPYf8eIsHBIR8qhwri-9" target="gamPYf8eIsHBIR8qhwri-21">
          <mxGeometry relative="1" as="geometry">
            <mxPoint x="229.9999999999999" y="210" as="sourcePoint" />
            <mxPoint x="230.0000000000001" y="260" as="targetPoint" />
          </mxGeometry>
        </mxCell>
        <mxCell id="gamPYf8eIsHBIR8qhwri-23" value="" style="rounded=0;html=1;jettySize=auto;orthogonalLoop=1;fontSize=11;endArrow=block;endFill=0;endSize=8;strokeWidth=1;shadow=0;labelBackgroundColor=none;edgeStyle=orthogonalEdgeStyle;exitX=1;exitY=0.5;exitDx=0;exitDy=0;" edge="1" parent="WIyWlLk6GJQsqaUBKTNV-1" source="gamPYf8eIsHBIR8qhwri-8">
          <mxGeometry relative="1" as="geometry">
            <mxPoint x="289.9999999999999" y="420" as="sourcePoint" />
            <mxPoint x="400" y="506" as="targetPoint" />
          </mxGeometry>
        </mxCell>
        <mxCell id="gamPYf8eIsHBIR8qhwri-24" value="" style="rounded=0;html=1;jettySize=auto;orthogonalLoop=1;fontSize=11;endArrow=block;endFill=0;endSize=8;strokeWidth=1;shadow=0;labelBackgroundColor=none;edgeStyle=orthogonalEdgeStyle;exitX=1;exitY=0.5;exitDx=0;exitDy=0;entryX=0;entryY=0.5;entryDx=0;entryDy=0;" edge="1" parent="WIyWlLk6GJQsqaUBKTNV-1" source="gamPYf8eIsHBIR8qhwri-7" target="gamPYf8eIsHBIR8qhwri-19">
          <mxGeometry relative="1" as="geometry">
            <mxPoint x="289.9999999999999" y="516" as="sourcePoint" />
            <mxPoint x="410.0000000000001" y="516" as="targetPoint" />
          </mxGeometry>
        </mxCell>
        <mxCell id="gamPYf8eIsHBIR8qhwri-25" value="" style="rounded=0;html=1;jettySize=auto;orthogonalLoop=1;fontSize=11;endArrow=block;endFill=0;endSize=8;strokeWidth=1;shadow=0;labelBackgroundColor=none;edgeStyle=orthogonalEdgeStyle;exitX=1;exitY=0.5;exitDx=0;exitDy=0;entryX=0;entryY=0.5;entryDx=0;entryDy=0;" edge="1" parent="WIyWlLk6GJQsqaUBKTNV-1" source="gamPYf8eIsHBIR8qhwri-6" target="gamPYf8eIsHBIR8qhwri-18">
          <mxGeometry relative="1" as="geometry">
            <mxPoint x="289.9999999999999" y="610" as="sourcePoint" />
            <mxPoint x="410.0000000000001" y="610" as="targetPoint" />
          </mxGeometry>
        </mxCell>
        <mxCell id="gamPYf8eIsHBIR8qhwri-26" value="" style="rounded=0;html=1;jettySize=auto;orthogonalLoop=1;fontSize=11;endArrow=block;endFill=0;endSize=8;strokeWidth=1;shadow=0;labelBackgroundColor=none;edgeStyle=orthogonalEdgeStyle;exitX=1;exitY=0.5;exitDx=0;exitDy=0;" edge="1" parent="WIyWlLk6GJQsqaUBKTNV-1" source="gamPYf8eIsHBIR8qhwri-5">
          <mxGeometry relative="1" as="geometry">
            <mxPoint x="289.9999999999999" y="710" as="sourcePoint" />
            <mxPoint x="400" y="800" as="targetPoint" />
          </mxGeometry>
        </mxCell>
      </root>
    </mxGraphModel>
  </diagram>
</mxfile>
